<svg width="16" height="16" viewBox="0 0 27 24" fill="currentColor" xmlns="http://www.w3.org/2000/svg">
<path d="M26.1421 23.0141V23.9354H17.5118V23.0141C17.5118 22.5859 17.8593 22.2465 18.2795 22.2465H18.433V21.3253C18.433 20.9535 18.6997 20.6384 19.0472 20.5737V13.0101H19.0229C18.7482 9.98788 16.2108 7.6202 13.1158 7.6202C10.0209 7.6202 7.48352 9.98788 7.20877 13.0101H7.18453V20.5576H7.34615C7.77443 20.5576 8.11382 20.9051 8.11382 21.3253V22.2465H8.26736C8.69564 22.2465 9.03504 22.5939 9.03504 23.0141V23.9354H0.412813V23.0141C0.412813 22.5859 0.760287 22.2465 1.18049 22.2465H1.33402V21.3253C1.33402 20.897 1.6815 20.5576 2.1017 20.5576V6.83636H1.2613L0.259277 3.44242H4.72796V0.0484848H21.5199V3.44242H26.2956L25.2936 6.83636H24.4451V20.5495C24.8734 20.5495 25.2128 20.897 25.2128 21.3172V22.2384H25.3663C25.7946 22.2465 26.1421 22.5939 26.1421 23.0141Z"/>
</svg>
